<svg xmlns="http://www.w3.org/2000/svg" xmlns:xlink="http://www.w3.org/1999/xlink" width="220" zoomAndPan="magnify" viewBox="0 0 165 71.249999" height="95" preserveAspectRatio="xMidYMid meet" version="1.0"><defs><g/><clipPath id="id1"><path d="M 7.910156 10.039062 L 56.152344 10.039062 L 56.152344 58.28125 L 7.910156 58.28125 Z M 7.910156 10.039062 " clip-rule="nonzero"/></clipPath></defs><g clip-path="url(#id1)"><path fill="#252b3d" d="M 7.910156 10.039062 L 7.910156 58.28125 L 56.152344 58.28125 L 56.152344 10.039062 L 7.910156 10.039062 M 54.617188 56.742188 L 9.414062 56.742188 L 9.414062 11.542969 L 54.617188 11.542969 L 54.617188 56.742188 " fill-opacity="1" fill-rule="nonzero"/></g><g fill="#252b3d" fill-opacity="1"><g transform="translate(15.432586, 51.399828)"><g><path d="M 13.140625 -0.5 L 13.78125 -0.5 L 13.78125 0 L 2.96875 0 L 2.96875 -0.5 L 3.609375 -0.5 C 4.460938 -0.5 5.191406 -0.800781 5.796875 -1.40625 C 6.410156 -2.019531 6.734375 -2.753906 6.765625 -3.609375 L 6.765625 -31 C 6.734375 -31.863281 6.410156 -32.585938 5.796875 -33.171875 C 5.191406 -33.765625 4.460938 -34.0625 3.609375 -34.0625 L 2.96875 -34.0625 L 2.96875 -34.5625 L 13.78125 -34.5625 L 13.78125 -34.0625 L 13.140625 -34.0625 C 12.273438 -34.0625 11.535156 -33.765625 10.921875 -33.171875 C 10.316406 -32.585938 10 -31.863281 9.96875 -31 L 9.96875 -3.609375 C 9.96875 -2.753906 10.28125 -2.019531 10.90625 -1.40625 C 11.53125 -0.800781 12.273438 -0.5 13.140625 -0.5 Z M 47.34375 7.40625 L 47.34375 7.90625 C 46.09375 8.195312 44.84375 8.34375 43.59375 8.34375 C 38.195312 8.34375 32.960938 5.644531 27.890625 0.25 L 11.546875 -17.1875 L 23.203125 -31.796875 C 23.460938 -32.128906 23.59375 -32.425781 23.59375 -32.6875 C 23.59375 -32.945312 23.546875 -33.175781 23.453125 -33.375 C 23.191406 -33.875 22.710938 -34.125 22.015625 -34.125 L 21.53125 -34.125 L 21.53125 -34.5625 L 31.953125 -34.5625 L 31.953125 -34.125 L 31.75 -34.125 C 29.570312 -34.125 27.796875 -33.347656 26.421875 -31.796875 L 14.90625 -18.515625 L 31.703125 -0.59375 C 33.867188 1.738281 36.3125 3.65625 39.03125 5.15625 C 41.75 6.65625 44.519531 7.40625 47.34375 7.40625 Z M 47.34375 7.40625 "/></g></g></g><g fill="#252b3d" fill-opacity="1"><g transform="translate(91.1888, 47.164915)"><g><path d="M 1.90625 -4.65625 L 1.90625 -2.59375 L 2.84375 -2.59375 C 3.019531 -2.601562 3.164062 -2.660156 3.28125 -2.765625 C 3.394531 -2.878906 3.453125 -3.023438 3.453125 -3.203125 L 3.453125 -3.265625 L 3.515625 -3.265625 L 3.515625 -1.625 L 3.453125 -1.625 L 3.453125 -1.6875 C 3.453125 -1.863281 3.394531 -2.007812 3.28125 -2.125 C 3.164062 -2.238281 3.023438 -2.296875 2.859375 -2.296875 L 1.90625 -2.296875 L 1.90625 -0.515625 C 1.90625 -0.390625 1.945312 -0.285156 2.03125 -0.203125 C 2.125 -0.117188 2.234375 -0.078125 2.359375 -0.078125 L 2.453125 -0.078125 L 2.453125 0 L 0.296875 0 L 0.296875 -0.078125 L 0.390625 -0.078125 C 0.515625 -0.078125 0.617188 -0.117188 0.703125 -0.203125 C 0.796875 -0.285156 0.84375 -0.390625 0.84375 -0.515625 L 0.84375 -4.46875 C 0.84375 -4.632812 0.765625 -4.757812 0.609375 -4.84375 C 0.546875 -4.875 0.472656 -4.890625 0.390625 -4.890625 L 0.296875 -4.890625 L 0.296875 -4.96875 L 3.015625 -4.96875 C 3.160156 -4.96875 3.320312 -4.976562 3.5 -5 C 3.675781 -5.03125 3.796875 -5.0625 3.859375 -5.09375 L 3.859375 -3.890625 L 3.796875 -3.890625 L 3.796875 -3.96875 C 3.796875 -4.175781 3.734375 -4.34375 3.609375 -4.46875 C 3.492188 -4.59375 3.332031 -4.65625 3.125 -4.65625 Z M 1.90625 -4.65625 "/></g></g></g><g fill="#252b3d" fill-opacity="1"><g transform="translate(95.967106, 47.164915)"><g><path d="M 0.390625 -0.078125 C 0.515625 -0.078125 0.617188 -0.117188 0.703125 -0.203125 C 0.796875 -0.285156 0.84375 -0.390625 0.84375 -0.515625 L 0.84375 -4.453125 C 0.84375 -4.578125 0.796875 -4.679688 0.703125 -4.765625 C 0.617188 -4.847656 0.515625 -4.890625 0.390625 -4.890625 L 0.296875 -4.890625 L 0.296875 -4.96875 L 2.453125 -4.96875 L 2.453125 -4.890625 L 2.359375 -4.890625 C 2.234375 -4.890625 2.125 -4.847656 2.03125 -4.765625 C 1.945312 -4.679688 1.90625 -4.578125 1.90625 -4.453125 L 1.90625 -0.515625 C 1.90625 -0.390625 1.945312 -0.285156 2.03125 -0.203125 C 2.125 -0.117188 2.234375 -0.078125 2.359375 -0.078125 L 2.453125 -0.078125 L 2.453125 0 L 0.296875 0 L 0.296875 -0.078125 Z M 0.390625 -0.078125 "/></g></g></g><g fill="#252b3d" fill-opacity="1"><g transform="translate(99.263786, 47.164915)"><g><path d="M 5.796875 -4.890625 C 5.628906 -4.890625 5.503906 -4.820312 5.421875 -4.6875 C 5.378906 -4.625 5.359375 -4.550781 5.359375 -4.46875 L 5.359375 -0.8125 C 5.359375 -0.488281 5.378906 -0.21875 5.421875 0 L 5.4375 0.09375 L 5.375 0.09375 L 1.796875 -3.3125 L 1.796875 -0.5 C 1.796875 -0.375 1.835938 -0.269531 1.921875 -0.1875 C 2.003906 -0.113281 2.109375 -0.078125 2.234375 -0.078125 L 2.359375 -0.078125 L 2.359375 0 L 0.21875 0 L 0.21875 -0.078125 L 0.34375 -0.078125 C 0.46875 -0.078125 0.570312 -0.113281 0.65625 -0.1875 C 0.738281 -0.269531 0.78125 -0.375 0.78125 -0.5 L 0.78125 -4.1875 C 0.78125 -4.5 0.757812 -4.757812 0.71875 -4.96875 L 0.703125 -5.078125 L 0.765625 -5.078125 L 4.34375 -1.65625 L 4.34375 -4.46875 C 4.34375 -4.582031 4.300781 -4.679688 4.21875 -4.765625 C 4.132812 -4.847656 4.03125 -4.890625 3.90625 -4.890625 L 3.78125 -4.890625 L 3.78125 -4.96875 L 5.9375 -4.96875 L 5.9375 -4.890625 Z M 5.796875 -4.890625 "/></g></g></g><g fill="#252b3d" fill-opacity="1"><g transform="translate(105.956154, 47.164915)"><g><path d="M 2.90625 -4.671875 L 2.90625 -0.515625 C 2.90625 -0.390625 2.945312 -0.285156 3.03125 -0.203125 C 3.125 -0.117188 3.234375 -0.078125 3.359375 -0.078125 L 3.4375 -0.078125 L 3.453125 0 L 1.296875 0 L 1.296875 -0.078125 L 1.390625 -0.078125 C 1.503906 -0.078125 1.601562 -0.117188 1.6875 -0.203125 C 1.78125 -0.285156 1.832031 -0.382812 1.84375 -0.5 L 1.84375 -4.671875 L 0.875 -4.671875 C 0.65625 -4.671875 0.484375 -4.601562 0.359375 -4.46875 C 0.234375 -4.332031 0.171875 -4.160156 0.171875 -3.953125 L 0.171875 -3.859375 L 0.09375 -3.859375 L 0.09375 -5.09375 C 0.289062 -5.019531 0.570312 -4.976562 0.9375 -4.96875 L 3.796875 -4.96875 C 3.941406 -4.96875 4.097656 -4.984375 4.265625 -5.015625 C 4.441406 -5.046875 4.5625 -5.070312 4.625 -5.09375 L 4.625 -3.859375 L 4.5625 -3.859375 L 4.5625 -3.953125 C 4.5625 -4.242188 4.453125 -4.453125 4.234375 -4.578125 C 4.128906 -4.640625 4.003906 -4.671875 3.859375 -4.671875 Z M 2.90625 -4.671875 "/></g></g></g><g fill="#252b3d" fill-opacity="1"><g transform="translate(111.23779, 47.164915)"><g><path d="M 0.390625 -0.078125 C 0.515625 -0.078125 0.617188 -0.117188 0.703125 -0.203125 C 0.796875 -0.285156 0.84375 -0.390625 0.84375 -0.515625 L 0.84375 -4.46875 C 0.832031 -4.59375 0.796875 -4.679688 0.734375 -4.734375 C 0.617188 -4.835938 0.503906 -4.890625 0.390625 -4.890625 L 0.296875 -4.890625 L 0.296875 -4.96875 L 3.015625 -4.96875 C 3.242188 -4.96875 3.429688 -4.984375 3.578125 -5.015625 C 3.734375 -5.054688 3.828125 -5.082031 3.859375 -5.09375 L 3.859375 -3.859375 L 3.796875 -3.859375 L 3.796875 -3.9375 C 3.796875 -4.226562 3.6875 -4.4375 3.46875 -4.5625 C 3.363281 -4.625 3.238281 -4.65625 3.09375 -4.65625 L 1.90625 -4.65625 L 1.90625 -2.59375 L 2.84375 -2.59375 C 3.019531 -2.601562 3.164062 -2.664062 3.28125 -2.78125 C 3.394531 -2.894531 3.453125 -3.035156 3.453125 -3.203125 L 3.453125 -3.265625 L 3.515625 -3.265625 L 3.515625 -1.625 L 3.453125 -1.625 L 3.453125 -1.6875 C 3.453125 -1.863281 3.394531 -2.007812 3.28125 -2.125 C 3.164062 -2.238281 3.023438 -2.296875 2.859375 -2.296875 L 1.90625 -2.296875 L 1.90625 -0.3125 L 2.84375 -0.3125 C 3.1875 -0.3125 3.472656 -0.410156 3.703125 -0.609375 C 3.941406 -0.804688 4.117188 -1.085938 4.234375 -1.453125 L 4.296875 -1.453125 L 3.96875 0 L 0.296875 0 L 0.296875 -0.078125 Z M 0.390625 -0.078125 "/></g></g></g><g fill="#252b3d" fill-opacity="1"><g transform="translate(116.271307, 47.164915)"><g><path d="M 3.25 0.09375 C 2.332031 0.09375 1.613281 -0.132812 1.09375 -0.59375 C 0.570312 -1.050781 0.3125 -1.679688 0.3125 -2.484375 C 0.3125 -3.285156 0.566406 -3.914062 1.078125 -4.375 C 1.597656 -4.832031 2.3125 -5.0625 3.21875 -5.0625 C 3.894531 -5.0625 4.484375 -4.9375 4.984375 -4.6875 L 5 -3.46875 L 4.9375 -3.46875 C 4.695312 -4.332031 4.144531 -4.765625 3.28125 -4.765625 C 2.726562 -4.765625 2.285156 -4.5625 1.953125 -4.15625 C 1.628906 -3.75 1.46875 -3.195312 1.46875 -2.5 C 1.46875 -1.800781 1.625 -1.242188 1.9375 -0.828125 C 2.25 -0.421875 2.671875 -0.210938 3.203125 -0.203125 C 3.742188 -0.203125 4.160156 -0.335938 4.453125 -0.609375 C 4.742188 -0.890625 4.945312 -1.378906 5.0625 -2.078125 L 5.125 -2.078125 L 5.1875 -0.84375 C 4.8125 -0.21875 4.164062 0.09375 3.25 0.09375 Z M 3.25 0.09375 "/></g></g></g><g fill="#252b3d" fill-opacity="1"><g transform="translate(122.361102, 47.164915)"><g><path d="M 3.75 -0.078125 C 3.875 -0.078125 3.96875 -0.101562 4.03125 -0.15625 C 4.144531 -0.269531 4.203125 -0.390625 4.203125 -0.515625 L 4.203125 -2.3125 L 1.90625 -2.3125 L 1.90625 -0.515625 C 1.90625 -0.390625 1.945312 -0.285156 2.03125 -0.203125 C 2.125 -0.117188 2.234375 -0.078125 2.359375 -0.078125 L 2.453125 -0.078125 L 2.453125 0 L 0.296875 0 L 0.296875 -0.078125 L 0.390625 -0.078125 C 0.515625 -0.078125 0.617188 -0.117188 0.703125 -0.203125 C 0.796875 -0.285156 0.84375 -0.390625 0.84375 -0.515625 L 0.84375 -4.453125 C 0.84375 -4.566406 0.796875 -4.664062 0.703125 -4.75 C 0.617188 -4.84375 0.515625 -4.890625 0.390625 -4.890625 L 0.296875 -4.890625 L 0.296875 -4.96875 L 2.453125 -4.96875 L 2.453125 -4.890625 L 2.359375 -4.890625 C 2.234375 -4.890625 2.125 -4.84375 2.03125 -4.75 C 1.945312 -4.664062 1.90625 -4.566406 1.90625 -4.453125 L 1.90625 -2.625 L 4.203125 -2.625 L 4.203125 -4.453125 C 4.203125 -4.566406 4.15625 -4.664062 4.0625 -4.75 C 3.976562 -4.84375 3.875 -4.890625 3.75 -4.890625 L 3.65625 -4.890625 L 3.65625 -4.96875 L 5.8125 -4.96875 L 5.8125 -4.890625 L 5.71875 -4.890625 C 5.601562 -4.890625 5.5 -4.84375 5.40625 -4.75 C 5.3125 -4.664062 5.265625 -4.566406 5.265625 -4.453125 L 5.265625 -0.515625 C 5.265625 -0.390625 5.3125 -0.285156 5.40625 -0.203125 C 5.5 -0.117188 5.601562 -0.078125 5.71875 -0.078125 L 5.8125 -0.078125 L 5.8125 0 L 3.65625 0 L 3.65625 -0.078125 Z M 3.75 -0.078125 "/></g></g></g><g fill="#252b3d" fill-opacity="1"><g transform="translate(62.906816, 34.646525)"><g><path d="M 1.09375 -0.203125 C 1.4375 -0.203125 1.734375 -0.320312 1.984375 -0.5625 C 2.234375 -0.8125 2.363281 -1.109375 2.375 -1.453125 L 2.375 -12.53125 C 2.363281 -13.007812 2.144531 -13.367188 1.71875 -13.609375 C 1.53125 -13.710938 1.320312 -13.765625 1.09375 -13.765625 L 0.84375 -13.765625 L 0.84375 -13.96875 L 6.90625 -13.96875 L 6.890625 -13.765625 L 6.640625 -13.765625 C 6.160156 -13.765625 5.796875 -13.5625 5.546875 -13.15625 C 5.429688 -12.96875 5.375 -12.757812 5.375 -12.53125 L 5.375 -1.453125 C 5.375 -1.109375 5.5 -0.8125 5.75 -0.5625 C 6 -0.320312 6.296875 -0.203125 6.640625 -0.203125 L 6.890625 -0.203125 L 6.90625 0 L 0.84375 0 L 0.84375 -0.203125 Z M 15.5 0 L 13.875 0 C 11.84375 0 10.410156 -0.550781 9.578125 -1.65625 C 7.191406 -4.882812 6 -6.523438 6 -6.578125 L 10.734375 -12.84375 C 10.835938 -12.976562 10.890625 -13.097656 10.890625 -13.203125 C 10.890625 -13.316406 10.867188 -13.410156 10.828125 -13.484375 C 10.722656 -13.679688 10.539062 -13.78125 10.28125 -13.78125 L 10.078125 -13.78125 L 10.078125 -13.96875 L 14.640625 -13.96875 L 14.640625 -13.78125 L 14.5625 -13.78125 C 13.675781 -13.78125 12.953125 -13.460938 12.390625 -12.828125 L 8.5 -8.21875 L 13.46875 -1.4375 C 14.082031 -0.632812 14.757812 -0.222656 15.5 -0.203125 Z M 15.5 0 "/></g></g></g><g fill="#252b3d" fill-opacity="1"><g transform="translate(78.012079, 34.646525)"><g><path d="M 6.34375 -13.09375 L 5.484375 -13.09375 C 5.460938 -13.09375 5.441406 -13.09375 5.421875 -13.09375 L 5.421875 -1.453125 C 5.441406 -1.109375 5.570312 -0.8125 5.8125 -0.5625 C 6.0625 -0.320312 6.359375 -0.203125 6.703125 -0.203125 L 6.96875 -0.203125 L 6.96875 0 L 0.890625 0 L 0.890625 -0.203125 L 1.15625 -0.203125 C 1.632812 -0.203125 2 -0.40625 2.25 -0.8125 C 2.363281 -1 2.425781 -1.207031 2.4375 -1.4375 L 2.4375 -12.515625 C 2.425781 -12.859375 2.296875 -13.148438 2.046875 -13.390625 C 1.796875 -13.640625 1.5 -13.765625 1.15625 -13.765625 L 0.890625 -13.765625 L 0.890625 -13.96875 L 7.734375 -13.96875 C 9.023438 -13.96875 10.117188 -13.6875 11.015625 -13.125 C 11.460938 -12.84375 11.816406 -12.453125 12.078125 -11.953125 C 12.347656 -11.460938 12.484375 -10.8125 12.484375 -10 C 12.484375 -9.195312 12.203125 -8.421875 11.640625 -7.671875 C 11.085938 -6.929688 10.28125 -6.507812 9.21875 -6.40625 C 9.988281 -6.15625 10.664062 -5.570312 11.25 -4.65625 C 12.6875 -2.351562 13.753906 -0.976562 14.453125 -0.53125 C 14.796875 -0.320312 15.226562 -0.210938 15.75 -0.203125 L 15.75 0 L 13.78125 0 C 12.625 0 11.660156 -0.148438 10.890625 -0.453125 C 10.128906 -0.765625 9.53125 -1.304688 9.09375 -2.078125 C 8.84375 -2.515625 8.289062 -3.648438 7.4375 -5.484375 C 7.070312 -6.296875 6.617188 -6.742188 6.078125 -6.828125 L 6.078125 -7.03125 L 6.703125 -7.03125 C 7.304688 -7.03125 7.835938 -7.207031 8.296875 -7.5625 C 8.753906 -7.914062 9.0625 -8.5 9.21875 -9.3125 C 9.269531 -9.59375 9.296875 -9.8125 9.296875 -9.96875 C 9.296875 -11.0625 9.078125 -11.847656 8.640625 -12.328125 C 8.203125 -12.816406 7.632812 -13.070312 6.9375 -13.09375 C 6.8125 -13.09375 6.613281 -13.09375 6.34375 -13.09375 Z M 6.34375 -13.09375 "/></g></g></g><g fill="#252b3d" fill-opacity="1"><g transform="translate(92.9178, 34.646525)"><g><path d="M 3.109375 -12.28125 C 4.523438 -13.59375 6.429688 -14.25 8.828125 -14.25 C 11.234375 -14.25 13.144531 -13.59375 14.5625 -12.28125 C 15.976562 -10.976562 16.6875 -9.207031 16.6875 -6.96875 C 16.6875 -4.738281 15.976562 -2.972656 14.5625 -1.671875 C 13.144531 -0.367188 11.234375 0.28125 8.828125 0.28125 C 6.429688 0.28125 4.523438 -0.367188 3.109375 -1.671875 C 1.691406 -2.972656 0.984375 -4.738281 0.984375 -6.96875 C 0.984375 -9.207031 1.691406 -10.976562 3.109375 -12.28125 Z M 5.46875 -2.28125 C 6.289062 -1.132812 7.40625 -0.5625 8.8125 -0.5625 C 10.226562 -0.5625 11.347656 -1.132812 12.171875 -2.28125 C 12.992188 -3.4375 13.40625 -5.003906 13.40625 -6.984375 C 13.40625 -8.960938 12.992188 -10.523438 12.171875 -11.671875 C 11.347656 -12.828125 10.226562 -13.40625 8.8125 -13.40625 C 7.40625 -13.40625 6.289062 -12.828125 5.46875 -11.671875 C 4.65625 -10.523438 4.25 -8.960938 4.25 -6.984375 C 4.25 -5.003906 4.65625 -3.4375 5.46875 -2.28125 Z M 5.46875 -2.28125 "/></g></g></g><g fill="#252b3d" fill-opacity="1"><g transform="translate(110.437513, 34.646525)"><g><path d="M 16.296875 -13.765625 C 15.835938 -13.765625 15.488281 -13.566406 15.25 -13.171875 C 15.132812 -12.992188 15.070312 -12.796875 15.0625 -12.578125 L 15.0625 -2.28125 C 15.0625 -1.382812 15.125 -0.628906 15.25 -0.015625 L 15.296875 0.28125 L 15.125 0.28125 L 5.046875 -9.3125 L 5.046875 -1.390625 C 5.046875 -1.054688 5.164062 -0.773438 5.40625 -0.546875 C 5.644531 -0.316406 5.929688 -0.203125 6.265625 -0.203125 L 6.640625 -0.203125 L 6.640625 0 L 0.59375 0 L 0.59375 -0.203125 L 0.953125 -0.203125 C 1.296875 -0.203125 1.585938 -0.316406 1.828125 -0.546875 C 2.066406 -0.773438 2.1875 -1.066406 2.1875 -1.421875 L 2.1875 -11.765625 C 2.1875 -12.648438 2.128906 -13.382812 2.015625 -13.96875 L 1.96875 -14.265625 L 2.15625 -14.265625 L 12.234375 -4.671875 L 12.234375 -12.546875 C 12.222656 -12.890625 12.097656 -13.175781 11.859375 -13.40625 C 11.617188 -13.644531 11.332031 -13.765625 11 -13.765625 L 10.640625 -13.765625 L 10.640625 -13.96875 L 16.6875 -13.96875 L 16.6875 -13.765625 Z M 16.296875 -13.765625 "/></g></g></g><g fill="#252b3d" fill-opacity="1"><g transform="translate(127.69782, 34.646525)"><g><path d="M 3.109375 -12.28125 C 4.523438 -13.59375 6.429688 -14.25 8.828125 -14.25 C 11.234375 -14.25 13.144531 -13.59375 14.5625 -12.28125 C 15.976562 -10.976562 16.6875 -9.207031 16.6875 -6.96875 C 16.6875 -4.738281 15.976562 -2.972656 14.5625 -1.671875 C 13.144531 -0.367188 11.234375 0.28125 8.828125 0.28125 C 6.429688 0.28125 4.523438 -0.367188 3.109375 -1.671875 C 1.691406 -2.972656 0.984375 -4.738281 0.984375 -6.96875 C 0.984375 -9.207031 1.691406 -10.976562 3.109375 -12.28125 Z M 5.46875 -2.28125 C 6.289062 -1.132812 7.40625 -0.5625 8.8125 -0.5625 C 10.226562 -0.5625 11.347656 -1.132812 12.171875 -2.28125 C 12.992188 -3.4375 13.40625 -5.003906 13.40625 -6.984375 C 13.40625 -8.960938 12.992188 -10.523438 12.171875 -11.671875 C 11.347656 -12.828125 10.226562 -13.40625 8.8125 -13.40625 C 7.40625 -13.40625 6.289062 -12.828125 5.46875 -11.671875 C 4.65625 -10.523438 4.25 -8.960938 4.25 -6.984375 C 4.25 -5.003906 4.65625 -3.4375 5.46875 -2.28125 Z M 5.46875 -2.28125 "/></g></g></g><g fill="#252b3d" fill-opacity="1"><g transform="translate(145.217533, 34.646525)"><g><path d="M 1 -1.859375 C 1 -2.816406 1.203125 -3.632812 1.609375 -4.3125 L 1.796875 -4.3125 C 1.785156 -4.207031 1.78125 -4.097656 1.78125 -3.984375 C 1.78125 -3.066406 2.109375 -2.265625 2.765625 -1.578125 C 3.421875 -0.898438 4.320312 -0.5625 5.46875 -0.5625 C 6.351562 -0.5625 7.046875 -0.769531 7.546875 -1.1875 C 8.046875 -1.613281 8.296875 -2.15625 8.296875 -2.8125 C 8.296875 -3.195312 8.171875 -3.539062 7.921875 -3.84375 C 7.679688 -4.15625 7.273438 -4.5 6.703125 -4.875 L 3.234375 -7.15625 C 1.941406 -8.019531 1.296875 -9.085938 1.296875 -10.359375 C 1.296875 -10.492188 1.3125 -10.625 1.34375 -10.75 C 1.414062 -11.800781 1.820312 -12.644531 2.5625 -13.28125 C 3.300781 -13.925781 4.289062 -14.25 5.53125 -14.25 C 6.257812 -14.25 7.160156 -14.179688 8.234375 -14.046875 L 9.5 -14.046875 L 9.234375 -11.109375 L 9.03125 -11.109375 C 9.03125 -11.804688 8.773438 -12.363281 8.265625 -12.78125 C 7.753906 -13.195312 7.070312 -13.40625 6.21875 -13.40625 C 5.1875 -13.40625 4.4375 -13.085938 3.96875 -12.453125 C 3.726562 -12.140625 3.609375 -11.832031 3.609375 -11.53125 C 3.609375 -11.226562 3.671875 -10.96875 3.796875 -10.75 C 3.984375 -10.40625 4.390625 -10.035156 5.015625 -9.640625 L 8.8125 -7.15625 C 10.007812 -6.375 10.609375 -5.351562 10.609375 -4.09375 C 10.609375 -2.675781 10.125 -1.59375 9.15625 -0.84375 C 8.195312 -0.09375 6.921875 0.28125 5.328125 0.28125 C 4.421875 0.28125 3.582031 0.171875 2.8125 -0.046875 C 2.050781 -0.265625 1.492188 -0.5625 1.140625 -0.9375 C 1.046875 -1.1875 1 -1.492188 1 -1.859375 Z M 1 -1.859375 "/></g></g></g></svg>