<svg xmlns="http://www.w3.org/2000/svg" xmlns:xlink="http://www.w3.org/1999/xlink" width="500" zoomAndPan="magnify" viewBox="0 0 375 374.999991" height="500" preserveAspectRatio="xMidYMid meet" version="1.0"><defs><g/><clipPath id="id1"><path d="M 6.117188 129.199219 L 122.367188 129.199219 L 122.367188 245.449219 L 6.117188 245.449219 Z M 6.117188 129.199219 " clip-rule="nonzero"/></clipPath></defs><g clip-path="url(#id1)"><path fill="#252b3d" d="M 6.117188 129.199219 L 6.117188 245.449219 L 122.367188 245.449219 L 122.367188 129.199219 L 6.117188 129.199219 M 118.667969 241.746094 L 9.746094 241.746094 L 9.746094 132.824219 L 118.667969 132.824219 L 118.667969 241.746094 " fill-opacity="1" fill-rule="nonzero"/></g><g fill="#252b3d" fill-opacity="1"><g transform="translate(24.32717, 229.317879)"><g><path d="M 31.796875 -1.1875 L 33.34375 -1.1875 L 33.34375 0 L 7.171875 0 L 7.171875 -1.1875 L 8.71875 -1.1875 C 10.789062 -1.1875 12.5625 -1.925781 14.03125 -3.40625 C 15.507812 -4.882812 16.289062 -6.65625 16.375 -8.71875 L 16.375 -75.0625 C 16.289062 -77.125 15.507812 -78.875 14.03125 -80.3125 C 12.5625 -81.75 10.789062 -82.46875 8.71875 -82.46875 L 7.171875 -82.46875 L 7.171875 -83.65625 L 33.34375 -83.65625 L 33.34375 -82.46875 L 31.796875 -82.46875 C 29.722656 -82.46875 27.945312 -81.75 26.46875 -80.3125 C 25 -78.875 24.222656 -77.125 24.140625 -75.0625 L 24.140625 -8.71875 C 24.140625 -6.65625 24.894531 -4.882812 26.40625 -3.40625 C 27.925781 -1.925781 29.722656 -1.1875 31.796875 -1.1875 Z M 114.609375 17.921875 L 114.609375 19.125 C 111.585938 19.84375 108.5625 20.203125 105.53125 20.203125 C 92.46875 20.203125 79.800781 13.664062 67.53125 0.59375 L 27.96875 -41.59375 L 56.171875 -76.96875 C 56.804688 -77.757812 57.125 -78.472656 57.125 -79.109375 C 57.125 -79.753906 57.003906 -80.316406 56.765625 -80.796875 C 56.128906 -81.984375 54.972656 -82.578125 53.296875 -82.578125 L 52.109375 -82.578125 L 52.109375 -83.65625 L 77.328125 -83.65625 L 77.328125 -82.578125 L 76.84375 -82.578125 C 71.582031 -82.578125 67.28125 -80.707031 63.9375 -76.96875 L 36.09375 -44.8125 L 76.734375 -1.4375 C 81.984375 4.21875 87.894531 8.859375 94.46875 12.484375 C 101.050781 16.109375 107.765625 17.921875 114.609375 17.921875 Z M 114.609375 17.921875 "/></g></g></g><g fill="#252b3d" fill-opacity="1"><g transform="translate(207.697428, 219.067135)"><g><path d="M 4.609375 -11.265625 L 4.609375 -6.28125 L 6.875 -6.28125 C 7.300781 -6.289062 7.648438 -6.429688 7.921875 -6.703125 C 8.203125 -6.984375 8.34375 -7.332031 8.34375 -7.75 L 8.34375 -7.90625 L 8.515625 -7.90625 L 8.515625 -3.953125 L 8.34375 -3.953125 L 8.34375 -4.078125 C 8.34375 -4.503906 8.207031 -4.851562 7.9375 -5.125 C 7.664062 -5.40625 7.320312 -5.550781 6.90625 -5.5625 L 4.609375 -5.5625 L 4.609375 -1.25 C 4.609375 -0.957031 4.71875 -0.703125 4.9375 -0.484375 C 5.15625 -0.273438 5.414062 -0.171875 5.71875 -0.171875 L 5.921875 -0.171875 L 5.9375 0 L 0.71875 0 L 0.71875 -0.171875 L 0.9375 -0.171875 C 1.238281 -0.171875 1.492188 -0.273438 1.703125 -0.484375 C 1.921875 -0.703125 2.035156 -0.957031 2.046875 -1.25 L 2.046875 -10.8125 C 2.046875 -11.207031 1.851562 -11.503906 1.46875 -11.703125 C 1.3125 -11.796875 1.132812 -11.84375 0.9375 -11.84375 L 0.71875 -11.84375 L 0.71875 -12.015625 L 7.296875 -12.015625 C 7.648438 -12.015625 8.035156 -12.046875 8.453125 -12.109375 C 8.878906 -12.179688 9.175781 -12.25 9.34375 -12.3125 L 9.34375 -9.421875 L 9.171875 -9.421875 L 9.171875 -9.59375 C 9.171875 -10.09375 9.023438 -10.492188 8.734375 -10.796875 C 8.441406 -11.097656 8.046875 -11.253906 7.546875 -11.265625 Z M 4.609375 -11.265625 "/></g></g></g><g fill="#252b3d" fill-opacity="1"><g transform="translate(219.263467, 219.067135)"><g><path d="M 0.9375 -0.171875 C 1.238281 -0.171875 1.492188 -0.273438 1.703125 -0.484375 C 1.921875 -0.703125 2.035156 -0.957031 2.046875 -1.25 L 2.046875 -10.78125 C 2.035156 -11.070312 1.921875 -11.320312 1.703125 -11.53125 C 1.492188 -11.738281 1.238281 -11.84375 0.9375 -11.84375 L 0.71875 -11.84375 L 0.71875 -12.015625 L 5.9375 -12.015625 L 5.921875 -11.84375 L 5.71875 -11.84375 C 5.414062 -11.84375 5.15625 -11.738281 4.9375 -11.53125 C 4.71875 -11.320312 4.609375 -11.070312 4.609375 -10.78125 L 4.609375 -1.25 C 4.609375 -0.957031 4.71875 -0.703125 4.9375 -0.484375 C 5.15625 -0.273438 5.414062 -0.171875 5.71875 -0.171875 L 5.921875 -0.171875 L 5.9375 0 L 0.71875 0 L 0.71875 -0.171875 Z M 0.9375 -0.171875 "/></g></g></g><g fill="#252b3d" fill-opacity="1"><g transform="translate(227.243182, 219.067135)"><g><path d="M 14.015625 -11.84375 C 13.617188 -11.84375 13.316406 -11.671875 13.109375 -11.328125 C 13.015625 -11.171875 12.960938 -11 12.953125 -10.8125 L 12.953125 -1.953125 C 12.953125 -1.191406 13.003906 -0.546875 13.109375 -0.015625 L 13.15625 0.234375 L 13 0.234375 L 4.34375 -8.015625 L 4.34375 -1.203125 C 4.34375 -0.910156 4.441406 -0.664062 4.640625 -0.46875 C 4.847656 -0.269531 5.097656 -0.171875 5.390625 -0.171875 L 5.71875 -0.171875 L 5.71875 0 L 0.515625 0 L 0.515625 -0.171875 L 0.828125 -0.171875 C 1.117188 -0.171875 1.367188 -0.269531 1.578125 -0.46875 C 1.785156 -0.664062 1.890625 -0.914062 1.890625 -1.21875 L 1.890625 -10.125 C 1.890625 -10.875 1.835938 -11.503906 1.734375 -12.015625 L 1.703125 -12.265625 L 1.859375 -12.265625 L 10.515625 -4.015625 L 10.515625 -10.796875 C 10.503906 -11.085938 10.394531 -11.332031 10.1875 -11.53125 C 9.976562 -11.738281 9.734375 -11.84375 9.453125 -11.84375 L 9.140625 -11.84375 L 9.140625 -12.015625 L 14.34375 -12.015625 L 14.34375 -11.84375 Z M 14.015625 -11.84375 "/></g></g></g><g fill="#252b3d" fill-opacity="1"><g transform="translate(243.442269, 219.067135)"><g><path d="M 7.015625 -11.3125 L 7.015625 -1.234375 C 7.023438 -0.941406 7.132812 -0.691406 7.34375 -0.484375 C 7.5625 -0.273438 7.816406 -0.171875 8.109375 -0.171875 L 8.328125 -0.171875 L 8.34375 0 L 3.125 0 L 3.125 -0.171875 L 3.34375 -0.171875 C 3.632812 -0.171875 3.882812 -0.273438 4.09375 -0.484375 C 4.300781 -0.691406 4.414062 -0.9375 4.4375 -1.21875 L 4.4375 -11.3125 L 2.125 -11.3125 C 1.601562 -11.289062 1.1875 -11.117188 0.875 -10.796875 C 0.5625 -10.484375 0.40625 -10.070312 0.40625 -9.5625 L 0.40625 -9.34375 L 0.234375 -9.34375 L 0.234375 -12.328125 C 0.703125 -12.140625 1.378906 -12.039062 2.265625 -12.03125 L 9.171875 -12.03125 C 9.523438 -12.03125 9.910156 -12.0625 10.328125 -12.125 C 10.753906 -12.195312 11.046875 -12.265625 11.203125 -12.328125 L 11.203125 -9.34375 L 11.03125 -9.34375 L 11.03125 -9.5625 C 11.03125 -10.269531 10.757812 -10.769531 10.21875 -11.0625 C 9.96875 -11.207031 9.664062 -11.289062 9.3125 -11.3125 Z M 7.015625 -11.3125 "/></g></g></g><g fill="#252b3d" fill-opacity="1"><g transform="translate(256.226633, 219.067135)"><g><path d="M 0.9375 -0.171875 C 1.238281 -0.171875 1.492188 -0.273438 1.703125 -0.484375 C 1.921875 -0.703125 2.035156 -0.957031 2.046875 -1.25 L 2.046875 -10.8125 C 2.015625 -11.101562 1.925781 -11.316406 1.78125 -11.453125 C 1.507812 -11.710938 1.226562 -11.84375 0.9375 -11.84375 L 0.71875 -11.84375 L 0.71875 -12.015625 L 7.296875 -12.015625 C 7.847656 -12.015625 8.304688 -12.054688 8.671875 -12.140625 C 9.046875 -12.222656 9.269531 -12.28125 9.34375 -12.3125 L 9.34375 -9.3125 L 9.171875 -9.328125 L 9.171875 -9.515625 C 9.171875 -10.222656 8.910156 -10.726562 8.390625 -11.03125 C 8.140625 -11.175781 7.84375 -11.253906 7.5 -11.265625 L 4.609375 -11.265625 L 4.609375 -6.28125 L 6.875 -6.28125 C 7.300781 -6.289062 7.648438 -6.4375 7.921875 -6.71875 C 8.203125 -7 8.34375 -7.34375 8.34375 -7.75 L 8.34375 -7.90625 L 8.515625 -7.90625 L 8.515625 -3.953125 L 8.34375 -3.953125 L 8.34375 -4.078125 C 8.34375 -4.503906 8.207031 -4.851562 7.9375 -5.125 C 7.664062 -5.40625 7.320312 -5.550781 6.90625 -5.5625 L 4.609375 -5.5625 L 4.609375 -0.734375 L 6.859375 -0.734375 C 7.691406 -0.734375 8.390625 -0.972656 8.953125 -1.453125 C 9.523438 -1.929688 9.945312 -2.613281 10.21875 -3.5 L 10.390625 -3.5 L 9.609375 0 L 0.71875 0 L 0.71875 -0.171875 Z M 0.9375 -0.171875 "/></g></g></g><g fill="#252b3d" fill-opacity="1"><g transform="translate(268.410415, 219.067135)"><g><path d="M 7.859375 0.21875 C 5.648438 0.21875 3.914062 -0.332031 2.65625 -1.4375 C 1.394531 -2.550781 0.765625 -4.070312 0.765625 -6 C 0.765625 -7.9375 1.390625 -9.460938 2.640625 -10.578125 C 3.890625 -11.691406 5.597656 -12.25 7.765625 -12.25 C 9.429688 -12.25 10.859375 -11.941406 12.046875 -11.328125 L 12.078125 -8.375 L 11.9375 -8.375 C 11.351562 -10.476562 10.019531 -11.53125 7.9375 -11.53125 C 6.59375 -11.53125 5.523438 -11.039062 4.734375 -10.0625 C 3.953125 -9.082031 3.5625 -7.742188 3.5625 -6.046875 C 3.5625 -4.359375 3.9375 -3.015625 4.6875 -2.015625 C 5.4375 -1.023438 6.453125 -0.515625 7.734375 -0.484375 C 9.066406 -0.484375 10.082031 -0.8125 10.78125 -1.46875 C 11.488281 -2.15625 11.976562 -3.335938 12.25 -5.015625 L 12.390625 -5.015625 L 12.5625 -2.0625 C 11.632812 -0.53125 10.066406 0.226562 7.859375 0.21875 Z M 7.859375 0.21875 "/></g></g></g><g fill="#252b3d" fill-opacity="1"><g transform="translate(283.150954, 219.067135)"><g><path d="M 9.078125 -0.171875 C 9.367188 -0.171875 9.597656 -0.242188 9.765625 -0.390625 C 10.023438 -0.660156 10.160156 -0.941406 10.171875 -1.234375 L 10.171875 -5.609375 L 4.609375 -5.609375 L 4.609375 -1.25 C 4.609375 -0.957031 4.71875 -0.703125 4.9375 -0.484375 C 5.15625 -0.273438 5.414062 -0.171875 5.71875 -0.171875 L 5.921875 -0.171875 L 5.9375 0 L 0.71875 0 L 0.71875 -0.171875 L 0.9375 -0.171875 C 1.238281 -0.171875 1.492188 -0.273438 1.703125 -0.484375 C 1.921875 -0.703125 2.035156 -0.957031 2.046875 -1.25 L 2.046875 -10.75 C 2.035156 -11.050781 1.921875 -11.304688 1.703125 -11.515625 C 1.492188 -11.734375 1.238281 -11.84375 0.9375 -11.84375 L 0.71875 -11.84375 L 0.71875 -12.015625 L 5.9375 -12.015625 L 5.921875 -11.84375 L 5.71875 -11.84375 C 5.414062 -11.84375 5.15625 -11.734375 4.9375 -11.515625 C 4.71875 -11.304688 4.609375 -11.050781 4.609375 -10.75 L 4.609375 -6.34375 L 10.171875 -6.34375 L 10.171875 -10.75 C 10.160156 -11.050781 10.046875 -11.304688 9.828125 -11.515625 C 9.617188 -11.734375 9.367188 -11.84375 9.078125 -11.84375 L 8.859375 -11.84375 L 8.859375 -12.015625 L 14.0625 -12.015625 L 14.0625 -11.84375 L 13.84375 -11.84375 C 13.550781 -11.84375 13.296875 -11.734375 13.078125 -11.515625 C 12.859375 -11.304688 12.75 -11.050781 12.75 -10.75 L 12.75 -1.25 C 12.75 -0.957031 12.859375 -0.703125 13.078125 -0.484375 C 13.296875 -0.273438 13.550781 -0.171875 13.84375 -0.171875 L 14.0625 -0.171875 L 14.0625 0 L 8.859375 0 L 8.859375 -0.171875 Z M 9.078125 -0.171875 "/></g></g></g><g fill="#252b3d" fill-opacity="1"><g transform="translate(139.240017, 188.765995)"><g><path d="M 2.65625 -0.484375 C 3.488281 -0.484375 4.203125 -0.78125 4.796875 -1.375 C 5.398438 -1.96875 5.71875 -2.6875 5.75 -3.53125 L 5.75 -30.328125 C 5.71875 -31.484375 5.1875 -32.351562 4.15625 -32.9375 C 3.707031 -33.195312 3.207031 -33.328125 2.65625 -33.328125 L 2.03125 -33.328125 L 2.03125 -33.8125 L 16.703125 -33.8125 L 16.65625 -33.328125 L 16.078125 -33.328125 C 14.921875 -33.328125 14.035156 -32.828125 13.421875 -31.828125 C 13.128906 -31.378906 12.984375 -30.878906 12.984375 -30.328125 L 12.984375 -3.53125 C 12.984375 -2.6875 13.289062 -1.96875 13.90625 -1.375 C 14.519531 -0.78125 15.242188 -0.484375 16.078125 -0.484375 L 16.65625 -0.484375 L 16.703125 0 L 2.03125 0 L 2.03125 -0.484375 Z M 37.53125 0 L 33.5625 0 C 28.664062 0 25.207031 -1.335938 23.1875 -4.015625 C 17.414062 -11.835938 14.53125 -15.8125 14.53125 -15.9375 L 25.984375 -31.109375 C 26.242188 -31.429688 26.375 -31.71875 26.375 -31.96875 C 26.375 -32.226562 26.320312 -32.457031 26.21875 -32.65625 C 25.96875 -33.132812 25.519531 -33.375 24.875 -33.375 L 24.390625 -33.375 L 24.390625 -33.8125 L 35.453125 -33.8125 L 35.453125 -33.375 L 35.25 -33.375 C 33.09375 -33.375 31.34375 -32.601562 30 -31.0625 L 20.578125 -19.890625 L 32.59375 -3.484375 C 34.082031 -1.546875 35.726562 -0.546875 37.53125 -0.484375 Z M 37.53125 0 "/></g></g></g><g fill="#252b3d" fill-opacity="1"><g transform="translate(175.802774, 188.765995)"><g><path d="M 15.359375 -31.6875 L 13.28125 -31.6875 C 13.21875 -31.6875 13.171875 -31.6875 13.140625 -31.6875 L 13.140625 -3.53125 C 13.171875 -2.6875 13.484375 -1.96875 14.078125 -1.375 C 14.671875 -0.78125 15.390625 -0.484375 16.234375 -0.484375 L 16.859375 -0.484375 L 16.859375 0 L 2.171875 0 L 2.171875 -0.484375 L 2.796875 -0.484375 C 3.960938 -0.484375 4.847656 -0.984375 5.453125 -1.984375 C 5.710938 -2.429688 5.859375 -2.929688 5.890625 -3.484375 L 5.890625 -30.28125 C 5.859375 -31.113281 5.546875 -31.828125 4.953125 -32.421875 C 4.359375 -33.023438 3.640625 -33.328125 2.796875 -33.328125 L 2.171875 -33.328125 L 2.171875 -33.8125 L 18.734375 -33.8125 C 21.859375 -33.8125 24.5 -33.132812 26.65625 -31.78125 C 27.75 -31.101562 28.617188 -30.160156 29.265625 -28.953125 C 29.910156 -27.742188 30.234375 -26.164062 30.234375 -24.21875 C 30.234375 -22.269531 29.554688 -20.394531 28.203125 -18.59375 C 26.847656 -16.789062 24.882812 -15.757812 22.3125 -15.5 C 24.175781 -14.882812 25.816406 -13.46875 27.234375 -11.25 C 30.710938 -5.675781 33.289062 -2.359375 34.96875 -1.296875 C 35.800781 -0.785156 36.847656 -0.515625 38.109375 -0.484375 L 38.109375 0 L 33.375 0 C 30.570312 0 28.242188 -0.367188 26.390625 -1.109375 C 24.546875 -1.847656 23.085938 -3.148438 22.015625 -5.015625 C 21.410156 -6.078125 20.078125 -8.832031 18.015625 -13.28125 C 17.109375 -15.25 16.015625 -16.328125 14.734375 -16.515625 L 14.734375 -17 L 16.234375 -17 C 17.679688 -17 18.957031 -17.429688 20.0625 -18.296875 C 21.175781 -19.171875 21.925781 -20.585938 22.3125 -22.546875 C 22.4375 -23.222656 22.5 -23.757812 22.5 -24.15625 C 22.5 -26.789062 21.96875 -28.695312 20.90625 -29.875 C 19.84375 -31.050781 18.476562 -31.65625 16.8125 -31.6875 C 16.488281 -31.6875 16.003906 -31.6875 15.359375 -31.6875 Z M 15.359375 -31.6875 "/></g></g></g><g fill="#252b3d" fill-opacity="1"><g transform="translate(211.882535, 188.765995)"><g><path d="M 7.5 -29.75 C 10.9375 -32.90625 15.5625 -34.484375 21.375 -34.484375 C 27.1875 -34.484375 31.804688 -32.90625 35.234375 -29.75 C 38.660156 -26.59375 40.375 -22.3125 40.375 -16.90625 C 40.375 -11.5 38.660156 -7.21875 35.234375 -4.0625 C 31.804688 -0.90625 27.1875 0.671875 21.375 0.671875 C 15.5625 0.671875 10.9375 -0.90625 7.5 -4.0625 C 4.070312 -7.21875 2.359375 -11.5 2.359375 -16.90625 C 2.359375 -22.3125 4.070312 -26.59375 7.5 -29.75 Z M 13.25 -5.53125 C 15.238281 -2.75 17.9375 -1.359375 21.34375 -1.359375 C 24.757812 -1.359375 27.460938 -2.75 29.453125 -5.53125 C 31.453125 -8.3125 32.453125 -12.097656 32.453125 -16.890625 C 32.453125 -21.691406 31.453125 -25.484375 29.453125 -28.265625 C 27.460938 -31.054688 24.757812 -32.453125 21.34375 -32.453125 C 17.9375 -32.453125 15.238281 -31.054688 13.25 -28.265625 C 11.269531 -25.484375 10.28125 -21.691406 10.28125 -16.890625 C 10.28125 -12.097656 11.269531 -8.3125 13.25 -5.53125 Z M 13.25 -5.53125 "/></g></g></g><g fill="#252b3d" fill-opacity="1"><g transform="translate(254.289545, 188.765995)"><g><path d="M 39.453125 -33.328125 C 38.328125 -33.328125 37.476562 -32.84375 36.90625 -31.875 C 36.644531 -31.457031 36.5 -30.972656 36.46875 -30.421875 L 36.46875 -5.5 C 36.46875 -3.34375 36.613281 -1.523438 36.90625 -0.046875 L 37.046875 0.671875 L 36.609375 0.671875 L 12.21875 -22.546875 L 12.21875 -3.375 C 12.21875 -2.570312 12.503906 -1.890625 13.078125 -1.328125 C 13.660156 -0.765625 14.359375 -0.484375 15.171875 -0.484375 L 16.078125 -0.484375 L 16.078125 0 L 1.453125 0 L 1.453125 -0.484375 L 2.3125 -0.484375 C 3.15625 -0.484375 3.863281 -0.765625 4.4375 -1.328125 C 5.019531 -1.890625 5.3125 -2.585938 5.3125 -3.421875 L 5.3125 -28.5 C 5.3125 -30.625 5.164062 -32.394531 4.875 -33.8125 L 4.78125 -34.53125 L 5.21875 -34.53125 L 29.609375 -11.296875 L 29.609375 -30.375 C 29.578125 -31.21875 29.269531 -31.921875 28.6875 -32.484375 C 28.101562 -33.046875 27.410156 -33.328125 26.609375 -33.328125 L 25.75 -33.328125 L 25.75 -33.8125 L 40.375 -33.8125 L 40.375 -33.328125 Z M 39.453125 -33.328125 "/></g></g></g><g fill="#252b3d" fill-opacity="1"><g transform="translate(296.068652, 188.765995)"><g><path d="M 7.5 -29.75 C 10.9375 -32.90625 15.5625 -34.484375 21.375 -34.484375 C 27.1875 -34.484375 31.804688 -32.90625 35.234375 -29.75 C 38.660156 -26.59375 40.375 -22.3125 40.375 -16.90625 C 40.375 -11.5 38.660156 -7.21875 35.234375 -4.0625 C 31.804688 -0.90625 27.1875 0.671875 21.375 0.671875 C 15.5625 0.671875 10.9375 -0.90625 7.5 -4.0625 C 4.070312 -7.21875 2.359375 -11.5 2.359375 -16.90625 C 2.359375 -22.3125 4.070312 -26.59375 7.5 -29.75 Z M 13.25 -5.53125 C 15.238281 -2.75 17.9375 -1.359375 21.34375 -1.359375 C 24.757812 -1.359375 27.460938 -2.75 29.453125 -5.53125 C 31.453125 -8.3125 32.453125 -12.097656 32.453125 -16.890625 C 32.453125 -21.691406 31.453125 -25.484375 29.453125 -28.265625 C 27.460938 -31.054688 24.757812 -32.453125 21.34375 -32.453125 C 17.9375 -32.453125 15.238281 -31.054688 13.25 -28.265625 C 11.269531 -25.484375 10.28125 -21.691406 10.28125 -16.890625 C 10.28125 -12.097656 11.269531 -8.3125 13.25 -5.53125 Z M 13.25 -5.53125 "/></g></g></g><g fill="#252b3d" fill-opacity="1"><g transform="translate(338.475661, 188.765995)"><g><path d="M 2.421875 -4.484375 C 2.421875 -6.804688 2.914062 -8.789062 3.90625 -10.4375 L 4.34375 -10.4375 C 4.3125 -10.175781 4.296875 -9.914062 4.296875 -9.65625 C 4.296875 -7.4375 5.09375 -5.5 6.6875 -3.84375 C 8.28125 -2.1875 10.460938 -1.359375 13.234375 -1.359375 C 15.390625 -1.359375 17.070312 -1.867188 18.28125 -2.890625 C 19.488281 -3.921875 20.09375 -5.226562 20.09375 -6.8125 C 20.09375 -7.738281 19.789062 -8.570312 19.1875 -9.3125 C 18.59375 -10.0625 17.609375 -10.882812 16.234375 -11.78125 L 7.828125 -17.34375 C 4.703125 -19.4375 3.140625 -22.007812 3.140625 -25.0625 C 3.140625 -25.382812 3.171875 -25.707031 3.234375 -26.03125 C 3.429688 -28.570312 4.421875 -30.613281 6.203125 -32.15625 C 7.992188 -33.707031 10.382812 -34.484375 13.375 -34.484375 C 15.144531 -34.484375 17.335938 -34.320312 19.953125 -34 L 22.984375 -34 L 22.359375 -26.90625 L 21.875 -26.90625 C 21.875 -28.570312 21.253906 -29.910156 20.015625 -30.921875 C 18.773438 -31.941406 17.125 -32.453125 15.0625 -32.453125 C 12.550781 -32.453125 10.734375 -31.679688 9.609375 -30.140625 C 9.023438 -29.398438 8.734375 -28.660156 8.734375 -27.921875 C 8.734375 -27.179688 8.878906 -26.550781 9.171875 -26.03125 C 9.628906 -25.195312 10.613281 -24.296875 12.125 -23.328125 L 21.34375 -17.34375 C 24.238281 -15.4375 25.6875 -12.957031 25.6875 -9.90625 C 25.6875 -6.488281 24.519531 -3.867188 22.1875 -2.046875 C 19.851562 -0.234375 16.753906 0.671875 12.890625 0.671875 C 10.703125 0.671875 8.679688 0.40625 6.828125 -0.125 C 4.984375 -0.65625 3.625 -1.367188 2.75 -2.265625 C 2.53125 -2.878906 2.421875 -3.617188 2.421875 -4.484375 Z M 2.421875 -4.484375 "/></g></g></g></svg>