<svg width="169" height="213" viewBox="0 0 169 213" fill="none" xmlns="http://www.w3.org/2000/svg">
<path d="M112.434 212.545H112.378C109.891 212.445 107.387 212.231 104.937 211.906C104.575 211.858 104.247 211.668 104.025 211.378C103.803 211.089 103.706 210.722 103.754 210.361C103.802 209.999 103.991 209.671 104.281 209.449C104.571 209.227 104.937 209.129 105.299 209.177C107.666 209.49 110.085 209.698 112.488 209.794C112.845 209.813 113.181 209.969 113.424 210.231C113.668 210.493 113.8 210.839 113.793 211.196C113.786 211.553 113.64 211.894 113.387 212.146C113.133 212.398 112.791 212.541 112.434 212.546V212.545ZM119.772 212.511C119.414 212.509 119.071 212.368 118.815 212.117C118.56 211.866 118.412 211.525 118.403 211.167C118.395 210.809 118.526 210.462 118.769 210.199C119.012 209.936 119.348 209.778 119.706 209.759C122.08 209.644 124.501 209.423 126.906 209.102C127.087 209.074 127.272 209.082 127.45 209.126C127.628 209.17 127.796 209.249 127.943 209.359C128.09 209.469 128.214 209.607 128.306 209.765C128.399 209.923 128.46 210.098 128.484 210.28C128.508 210.462 128.496 210.647 128.448 210.824C128.4 211.001 128.317 211.166 128.204 211.311C128.091 211.455 127.95 211.576 127.79 211.665C127.63 211.754 127.453 211.811 127.271 211.831C124.794 212.162 122.295 212.391 119.845 212.51L119.772 212.511ZM97.895 210.611C97.7907 210.611 97.6867 210.599 97.585 210.576C95.171 210.021 92.75 209.343 90.391 208.56C90.2151 208.507 90.0517 208.419 89.9103 208.301C89.769 208.184 89.6526 208.039 89.5681 207.876C89.4835 207.712 89.4325 207.534 89.418 207.351C89.4036 207.167 89.426 206.983 89.4838 206.809C89.5417 206.634 89.634 206.473 89.7551 206.335C89.8763 206.197 90.0238 206.084 90.1892 206.004C90.3545 205.923 90.5343 205.877 90.7179 205.867C90.9014 205.858 91.0851 205.885 91.258 205.947C93.536 206.702 95.872 207.357 98.203 207.892C98.5326 207.968 98.8228 208.162 99.0183 208.438C99.2137 208.714 99.3008 209.052 99.2628 209.388C99.2249 209.725 99.0646 210.035 98.8125 210.26C98.5604 210.486 98.2342 210.611 97.896 210.611H97.895ZM134.317 210.584C133.977 210.583 133.65 210.457 133.398 210.23C133.145 210.002 132.986 209.69 132.95 209.352C132.914 209.014 133.005 208.675 133.204 208.4C133.403 208.125 133.697 207.933 134.029 207.861C136.364 207.361 138.729 206.761 141.046 206.074C141.393 205.981 141.763 206.027 142.077 206.203C142.39 206.378 142.623 206.67 142.724 207.015C142.826 207.36 142.789 207.73 142.62 208.048C142.452 208.366 142.166 208.605 141.824 208.715C139.437 209.415 137.009 210.036 134.607 210.552C134.511 210.573 134.414 210.583 134.316 210.583L134.317 210.584ZM148.403 206.45C148.08 206.45 147.768 206.336 147.52 206.129C147.273 205.922 147.106 205.635 147.049 205.317C146.991 205 147.047 204.672 147.207 204.392C147.367 204.111 147.62 203.896 147.922 203.783C150.171 202.944 152.422 202.014 154.622 201.018C154.787 200.938 154.967 200.893 155.15 200.884C155.333 200.875 155.517 200.902 155.689 200.965C155.862 201.028 156.02 201.124 156.154 201.249C156.289 201.373 156.397 201.524 156.473 201.691C156.549 201.858 156.59 202.039 156.595 202.222C156.6 202.405 156.568 202.588 156.502 202.759C156.435 202.93 156.335 203.086 156.207 203.217C156.08 203.349 155.927 203.454 155.758 203.526C153.502 204.548 151.188 205.503 148.88 206.363C148.727 206.42 148.565 206.449 148.402 206.449L148.403 206.45ZM83.961 206.014C83.775 206.014 83.591 205.976 83.42 205.903C81.191 204.948 78.927 203.877 76.688 202.719C76.5232 202.638 76.3761 202.526 76.2554 202.388C76.1346 202.25 76.0427 202.089 75.9851 201.914C75.9274 201.74 75.9051 201.556 75.9195 201.373C75.9339 201.191 75.9847 201.012 76.069 200.849C76.1532 200.686 76.2691 200.542 76.41 200.424C76.5508 200.307 76.7138 200.219 76.8892 200.165C77.0646 200.111 77.249 200.093 77.4315 200.112C77.614 200.13 77.791 200.185 77.952 200.273C80.132 201.4 82.337 202.442 84.504 203.373C84.7958 203.498 85.0355 203.72 85.1825 204.001C85.3296 204.282 85.3751 204.605 85.3112 204.916C85.2473 205.227 85.0781 205.506 84.8321 205.707C84.5861 205.907 84.2783 206.016 83.961 206.016V206.014ZM161.777 200.386C161.471 200.386 161.173 200.284 160.931 200.096C160.689 199.908 160.517 199.644 160.442 199.347C160.366 199.05 160.392 198.737 160.515 198.456C160.638 198.175 160.852 197.944 161.121 197.798C163.057 196.751 164.899 195.67 166.596 194.585C166.904 194.397 167.273 194.336 167.624 194.417C167.975 194.498 168.281 194.714 168.475 195.018C168.67 195.321 168.737 195.689 168.663 196.042C168.589 196.395 168.379 196.705 168.079 196.905C166.326 198.026 164.425 199.141 162.431 200.22C162.23 200.329 162.005 200.386 161.776 200.385L161.777 200.386ZM70.911 199.278C70.6595 199.278 70.4129 199.209 70.198 199.078C68.066 197.784 65.971 196.412 63.972 195.003C63.6761 194.791 63.4759 194.471 63.4151 194.113C63.3544 193.754 63.438 193.386 63.6477 193.089C63.8575 192.791 64.1764 192.589 64.5347 192.527C64.8929 192.464 65.2616 192.545 65.56 192.753C67.507 194.127 69.548 195.462 71.627 196.724C71.8839 196.88 72.0827 197.116 72.1931 197.395C72.3035 197.675 72.3194 197.983 72.2383 198.272C72.1573 198.562 71.9838 198.817 71.7443 198.998C71.5049 199.18 71.2126 199.278 70.912 199.278H70.911ZM58.918 190.798C58.5986 190.798 58.2891 190.687 58.043 190.483C56.177 188.945 54.388 187.349 52.722 185.736C52.4342 185.532 52.2342 185.226 52.1621 184.88C52.09 184.535 52.1511 184.175 52.3332 183.872C52.5153 183.57 52.8048 183.348 53.144 183.25C53.4831 183.152 53.8467 183.185 54.162 183.344C56.3847 183.842 58.6331 184.218 60.897 184.47C61.0796 184.486 61.2571 184.539 61.4191 184.624C61.5811 184.71 61.7245 184.827 61.8406 184.969C61.9568 185.11 62.0436 185.274 62.0957 185.45C62.1479 185.625 62.1645 185.809 62.1446 185.992C62.1246 186.174 62.0685 186.35 61.9795 186.51C61.8905 186.671 61.7704 186.811 61.6262 186.925C61.4821 187.038 61.3168 187.121 61.1401 187.17C60.9634 187.218 60.7787 187.231 60.597 187.207C59.7464 187.113 58.8933 187.001 58.038 186.871C58.6153 187.372 59.2017 187.868 59.797 188.359C60.0157 188.539 60.1733 188.783 60.2483 189.056C60.3234 189.33 60.3123 189.62 60.2164 189.886C60.1206 190.153 59.9448 190.384 59.7129 190.547C59.4811 190.71 59.2045 190.798 58.921 190.798H58.918ZM68.074 187.589C67.7088 187.591 67.3579 187.447 67.0986 187.19C66.8392 186.933 66.6926 186.583 66.691 186.218C66.6894 185.853 66.833 185.502 67.0901 185.242C67.3472 184.983 67.6968 184.837 68.062 184.835C69.98 184.819 71.916 184.707 73.819 184.505C74.209 184.464 74.669 184.414 75.239 184.346C75.4205 184.32 75.6053 184.331 75.7826 184.378C75.9598 184.425 76.126 184.507 76.2712 184.618C76.4165 184.73 76.538 184.87 76.6285 185.029C76.7191 185.189 76.7769 185.364 76.7986 185.546C76.8203 185.728 76.8055 185.913 76.7549 186.089C76.7044 186.265 76.6192 186.43 76.5043 186.573C76.3894 186.715 76.2471 186.834 76.0858 186.921C75.9245 187.008 75.7475 187.062 75.565 187.08C74.981 187.15 74.51 187.201 74.165 187.237C72.1164 187.455 70.0894 187.572 68.084 187.589H68.074ZM82.662 185.889C82.322 185.888 81.9944 185.761 81.7422 185.533C81.4901 185.305 81.3312 184.992 81.2962 184.654C81.2612 184.316 81.3525 183.976 81.5526 183.702C81.7527 183.427 82.0474 183.236 82.38 183.165C84.78 182.665 87.132 182.053 89.38 181.365C89.729 181.257 90.1066 181.293 90.4295 181.463C90.7524 181.634 90.9944 181.926 91.102 182.275C91.2097 182.624 91.1743 183.001 91.0036 183.324C90.833 183.647 90.5411 183.889 90.192 183.997C87.867 184.713 85.431 185.342 82.951 185.864C82.8555 185.882 82.7583 185.89 82.661 185.888L82.662 185.889ZM46.462 183.941C46.3067 183.941 46.1525 183.915 46.006 183.863C43.6494 183.033 41.3396 182.076 39.087 180.995C38.7614 180.835 38.5122 180.553 38.3936 180.21C38.2749 179.867 38.2963 179.491 38.4533 179.164C38.6102 178.837 38.8899 178.585 39.2316 178.463C39.5733 178.341 39.9493 178.358 40.278 178.512C42.4396 179.55 44.6563 180.469 46.918 181.265C47.2246 181.373 47.4831 181.586 47.6479 181.866C47.8127 182.146 47.8732 182.475 47.8186 182.795C47.764 183.116 47.5979 183.406 47.3496 183.616C47.1014 183.826 46.787 183.941 46.462 183.941V183.941ZM96.681 181.53C96.364 181.53 96.0567 181.421 95.811 181.22C95.5653 181.02 95.3962 180.741 95.3323 180.431C95.2684 180.12 95.3135 179.797 95.4601 179.516C95.6067 179.235 95.8458 179.013 96.137 178.888C98.3352 177.949 100.47 176.868 102.528 175.652C102.684 175.556 102.857 175.492 103.037 175.463C103.218 175.435 103.402 175.443 103.58 175.486C103.757 175.53 103.924 175.608 104.071 175.717C104.218 175.826 104.342 175.963 104.435 176.12C104.529 176.277 104.59 176.451 104.615 176.632C104.641 176.813 104.63 176.998 104.583 177.174C104.537 177.351 104.455 177.517 104.344 177.662C104.233 177.807 104.094 177.928 103.935 178.019C101.774 179.297 99.5323 180.432 97.224 181.419C97.0542 181.491 96.8716 181.529 96.687 181.529L96.681 181.53ZM48.448 180.53C48.2469 180.53 48.0481 180.486 47.8658 180.401C47.6835 180.316 47.5221 180.192 47.393 180.038C45.7798 178.124 44.2811 176.117 42.905 174.026C42.7954 173.875 42.7176 173.704 42.6762 173.522C42.6348 173.34 42.6307 173.152 42.6642 172.969C42.6977 172.785 42.7681 172.611 42.8711 172.455C42.9741 172.3 43.1076 172.167 43.2634 172.065C43.4193 171.963 43.5942 171.893 43.7778 171.861C43.9613 171.828 44.1495 171.833 44.331 171.875C44.5126 171.917 44.6836 171.996 44.8339 172.106C44.9841 172.217 45.1104 172.356 45.205 172.517C46.5216 174.517 47.9551 176.437 49.498 178.268C49.6664 178.469 49.774 178.713 49.8082 178.973C49.8425 179.233 49.802 179.497 49.6914 179.734C49.5809 179.972 49.4049 180.173 49.1841 180.314C48.9634 180.454 48.707 180.53 48.445 180.53H48.448ZM33.248 177.609C32.9926 177.609 32.7421 177.538 32.525 177.403C30.4023 176.089 28.3505 174.663 26.378 173.133C26.2352 173.022 26.1156 172.884 26.0261 172.727C25.9366 172.57 25.8789 172.397 25.8562 172.218C25.8106 171.855 25.9107 171.49 26.1345 171.201C26.3583 170.913 26.6876 170.725 27.0498 170.68C27.4121 170.634 27.7776 170.734 28.066 170.958C29.9623 172.427 31.9347 173.796 33.975 175.058C34.2299 175.216 34.4263 175.452 34.5346 175.732C34.6428 176.011 34.6569 176.318 34.5748 176.606C34.4927 176.894 34.3188 177.148 34.0795 177.328C33.8403 177.509 33.5487 177.606 33.249 177.606L33.248 177.609ZM109.23 173.986C108.947 173.986 108.671 173.899 108.44 173.737C108.208 173.575 108.032 173.346 107.935 173.08C107.838 172.815 107.826 172.526 107.899 172.253C107.972 171.98 108.127 171.736 108.344 171.554C110.154 170.042 111.812 168.357 113.295 166.523C113.524 166.238 113.856 166.056 114.219 166.017C114.582 165.977 114.946 166.083 115.231 166.312C115.516 166.541 115.698 166.873 115.737 167.236C115.777 167.599 115.671 167.963 115.442 168.248C113.847 170.222 112.063 172.035 110.116 173.663C109.867 173.87 109.552 173.981 109.228 173.978L109.23 173.986ZM21.67 168.622C21.3138 168.623 20.9712 168.485 20.715 168.237C18.915 166.506 17.2099 164.678 15.607 162.763C15.3841 162.482 15.2798 162.124 15.3164 161.767C15.3529 161.41 15.5275 161.082 15.8029 160.851C16.0782 160.621 16.4327 160.507 16.7906 160.535C17.1485 160.562 17.4816 160.728 17.719 160.997C19.2569 162.836 20.8926 164.591 22.619 166.254C22.8168 166.444 22.9532 166.69 23.0106 166.958C23.068 167.227 23.0438 167.506 22.9411 167.761C22.8385 168.015 22.662 168.234 22.4345 168.387C22.2069 168.541 21.9386 168.623 21.664 168.623L21.67 168.622ZM40.48 168.246C40.2172 168.246 39.9599 168.17 39.7385 168.029C39.5172 167.887 39.3411 167.685 39.231 167.446C38.1616 165.157 37.2917 162.78 36.631 160.341C36.5462 159.992 36.6014 159.623 36.7847 159.314C36.968 159.005 37.2649 158.779 37.612 158.686C37.9592 158.593 38.329 158.639 38.6425 158.815C38.9561 158.991 39.1884 159.282 39.29 159.627C39.9107 161.912 40.7274 164.139 41.731 166.284C41.8286 166.494 41.8718 166.725 41.8566 166.955C41.8414 167.186 41.7683 167.41 41.6441 167.605C41.5198 167.8 41.3484 167.96 41.1456 168.072C40.9429 168.183 40.7153 168.242 40.484 168.242L40.48 168.246ZM118.31 162.597C118.076 162.597 117.846 162.537 117.641 162.423C117.437 162.309 117.265 162.145 117.141 161.946C117.018 161.747 116.947 161.52 116.936 161.286C116.925 161.053 116.973 160.82 117.077 160.61C118.055 158.623 118.828 156.542 119.384 154.398L119.484 154.009C119.578 153.661 119.805 153.364 120.116 153.181C120.428 152.999 120.798 152.945 121.148 153.033C121.498 153.121 121.799 153.342 121.988 153.65C122.176 153.957 122.236 154.327 122.155 154.678L122.049 155.093C121.447 157.418 120.609 159.675 119.549 161.83C119.434 162.06 119.257 162.254 119.038 162.389C118.819 162.524 118.566 162.594 118.309 162.593L118.31 162.597ZM12.275 157.375C12.0474 157.375 11.8233 157.319 11.6228 157.211C11.4223 157.104 11.2516 156.948 11.126 156.758C9.74528 154.674 8.48423 152.513 7.34901 150.285C7.19403 149.961 7.17181 149.589 7.28709 149.249C7.40237 148.909 7.646 148.627 7.96605 148.464C8.28609 148.301 8.6572 148.269 9.00019 148.376C9.34319 148.483 9.63092 148.719 9.80201 149.035C10.8899 151.169 12.0982 153.239 13.421 155.235C13.5583 155.442 13.6368 155.683 13.6483 155.932C13.6597 156.18 13.6037 156.427 13.486 156.646C13.3684 156.865 13.1936 157.049 12.9802 157.176C12.7668 157.304 12.5228 157.372 12.274 157.372L12.275 157.375ZM36.753 154.144C36.4036 154.143 36.0674 154.01 35.8127 153.771C35.5579 153.532 35.4036 153.205 35.381 152.856C35.33 152.073 35.305 151.276 35.305 150.488C35.3059 148.735 35.4312 146.985 35.68 145.25C35.7346 144.891 35.9289 144.568 36.2205 144.352C36.5121 144.135 36.8774 144.043 37.2369 144.094C37.5963 144.146 37.9209 144.337 38.1398 144.627C38.3588 144.917 38.4545 145.281 38.406 145.641C38.1757 147.246 38.0597 148.866 38.059 150.488C38.059 151.217 38.083 151.953 38.13 152.678C38.1418 152.858 38.1179 153.04 38.0597 153.211C38.0015 153.382 37.9101 153.54 37.7908 153.676C37.6714 153.812 37.5265 153.923 37.3642 154.003C37.2019 154.082 37.0255 154.129 36.845 154.141C36.812 154.14 36.782 154.141 36.752 154.141L36.753 154.144ZM121.858 148.462H121.797C121.432 148.446 121.089 148.286 120.842 148.017C120.595 147.748 120.465 147.392 120.481 147.027C120.504 146.494 120.516 145.96 120.515 145.427C120.513 143.596 120.382 141.768 120.123 139.955C120.094 139.774 120.101 139.59 120.144 139.412C120.187 139.234 120.265 139.066 120.373 138.918C120.482 138.771 120.618 138.647 120.775 138.553C120.933 138.459 121.107 138.397 121.288 138.371C121.469 138.345 121.654 138.356 121.831 138.402C122.008 138.449 122.174 138.53 122.32 138.641C122.465 138.753 122.587 138.892 122.678 139.051C122.768 139.21 122.827 139.385 122.849 139.567C123.127 141.508 123.267 143.466 123.269 145.427C123.269 145.998 123.257 146.57 123.233 147.142C123.218 147.497 123.066 147.831 122.809 148.077C122.553 148.322 122.212 148.459 121.857 148.459L121.858 148.462ZM5.624 144.318C5.34281 144.318 5.06849 144.231 4.83787 144.07C4.60726 143.909 4.43143 143.682 4.33403 143.418C3.46166 141.076 2.7192 138.688 2.11003 136.264C2.06115 136.087 2.04809 135.902 2.07167 135.72C2.09524 135.538 2.15496 135.363 2.2473 135.204C2.33963 135.046 2.46275 134.907 2.60939 134.797C2.75602 134.686 2.92322 134.607 3.10118 134.562C3.27913 134.517 3.46425 134.508 3.64564 134.536C3.82703 134.564 4.00102 134.628 4.15742 134.724C4.31383 134.82 4.44949 134.946 4.55641 135.095C4.66332 135.244 4.73934 135.413 4.78001 135.592C5.36455 137.917 6.07697 140.208 6.91401 142.455C6.99185 142.663 7.01808 142.887 6.99046 143.108C6.96284 143.329 6.88222 143.539 6.75544 143.722C6.62867 143.905 6.45953 144.054 6.26249 144.157C6.06546 144.26 5.84638 144.314 5.624 144.314V144.318ZM38.773 139.696C38.5545 139.695 38.3392 139.643 38.145 139.543C37.9508 139.442 37.7833 139.297 37.6563 139.119C37.5293 138.941 37.4464 138.736 37.4145 138.52C37.3827 138.304 37.4027 138.083 37.473 137.876C38.289 135.493 39.2842 133.175 40.45 130.942C40.6208 130.622 40.9109 130.382 41.2574 130.275C41.6038 130.168 41.9787 130.201 42.3004 130.369C42.6222 130.536 42.8649 130.824 42.9759 131.169C43.0868 131.514 43.0571 131.889 42.893 132.213C41.7915 134.322 40.8511 136.511 40.08 138.762C39.9869 139.035 39.8106 139.271 39.576 139.438C39.3413 139.606 39.0601 139.695 38.772 139.694L38.773 139.696ZM119.831 133.996C119.54 133.996 119.256 133.903 119.021 133.732C118.785 133.56 118.61 133.318 118.521 133.041C117.791 130.781 116.88 128.583 115.798 126.469C115.632 126.144 115.601 125.766 115.714 125.418C115.826 125.071 116.072 124.782 116.397 124.616C116.722 124.45 117.1 124.419 117.448 124.532C117.795 124.644 118.084 124.89 118.25 125.215C119.399 127.461 120.366 129.795 121.142 132.196C121.209 132.403 121.226 132.622 121.191 132.836C121.157 133.051 121.072 133.254 120.945 133.43C120.817 133.605 120.649 133.748 120.456 133.846C120.262 133.945 120.048 133.996 119.831 133.996V133.996ZM2.03102 130.107C1.69949 130.107 1.37921 129.987 1.12901 129.769C0.878807 129.552 0.715484 129.251 0.669018 128.923C0.320995 126.452 0.097057 123.966 -0.00197217 121.473C-0.00912921 121.292 0.0193519 121.112 0.0818901 120.942C0.144428 120.773 0.239787 120.617 0.362499 120.484C0.485212 120.351 0.632895 120.244 0.7971 120.168C0.961305 120.092 1.13883 120.05 1.31953 120.043C1.50023 120.035 1.68055 120.064 1.85023 120.126C2.01991 120.189 2.17562 120.284 2.30845 120.407C2.44129 120.53 2.54867 120.677 2.62443 120.842C2.70019 121.006 2.74285 121.183 2.75001 121.364C2.84524 123.764 3.06084 126.158 3.39601 128.536C3.42315 128.731 3.40817 128.93 3.35203 129.119C3.2959 129.308 3.19993 129.483 3.0706 129.631C2.94126 129.78 2.78156 129.9 2.60225 129.981C2.42293 130.063 2.22814 130.106 2.03102 130.106V130.107ZM45.485 126.688C45.233 126.688 44.9859 126.618 44.7706 126.487C44.5553 126.356 44.3801 126.169 44.2641 125.945C44.148 125.721 44.0956 125.47 44.1126 125.219C44.1295 124.967 44.2151 124.725 44.36 124.519C45.8045 122.469 47.3769 120.513 49.068 118.662C49.1888 118.524 49.3359 118.412 49.5005 118.332C49.6652 118.252 49.8442 118.206 50.0271 118.195C50.2099 118.185 50.3929 118.212 50.5654 118.273C50.7379 118.335 50.8964 118.43 51.0316 118.554C51.1668 118.677 51.276 118.826 51.3529 118.993C51.4297 119.159 51.4726 119.339 51.479 119.522C51.4855 119.705 51.4554 119.887 51.3905 120.058C51.3256 120.23 51.2272 120.386 51.101 120.519C49.4885 122.284 47.9888 124.15 46.611 126.104C46.4839 126.284 46.3155 126.43 46.1199 126.532C45.9243 126.633 45.7072 126.685 45.487 126.685L45.485 126.688ZM113.172 120.972C112.955 120.972 112.742 120.921 112.549 120.823C112.355 120.725 112.188 120.583 112.06 120.408C110.658 118.492 109.102 116.693 107.406 115.031C107.152 114.774 107.009 114.428 107.008 114.066C107.007 113.705 107.148 113.358 107.401 113.1C107.654 112.841 107.998 112.693 108.359 112.686C108.72 112.679 109.07 112.815 109.332 113.063C111.135 114.831 112.791 116.743 114.282 118.781C114.432 118.986 114.522 119.229 114.543 119.482C114.564 119.736 114.514 119.99 114.399 120.216C114.284 120.443 114.108 120.634 113.892 120.767C113.675 120.9 113.426 120.971 113.172 120.971V120.972ZM55.372 115.872C55.0901 115.872 54.8149 115.785 54.5837 115.624C54.3525 115.463 54.1764 115.234 54.0792 114.97C53.9821 114.705 53.9685 114.417 54.0403 114.144C54.1122 113.871 54.266 113.627 54.481 113.445C56.3955 111.82 58.4182 110.326 60.535 108.975C60.6875 108.876 60.8582 108.808 61.0372 108.775C61.2162 108.742 61.3999 108.745 61.5778 108.783C61.7556 108.822 61.9241 108.895 62.0734 108.999C62.2227 109.103 62.3498 109.236 62.4476 109.39C62.5453 109.543 62.6117 109.714 62.6428 109.894C62.6739 110.073 62.6691 110.257 62.6288 110.434C62.5885 110.612 62.5134 110.779 62.4079 110.928C62.3024 111.076 62.1685 111.202 62.014 111.298C60.0028 112.582 58.081 114.001 56.262 115.545C56.0132 115.754 55.6982 115.868 55.373 115.867L55.372 115.872ZM1.44203 115.457H1.36201C1.18109 115.447 1.00389 115.402 0.840557 115.323C0.677228 115.245 0.530998 115.135 0.410229 115C0.289459 114.865 0.196512 114.707 0.136761 114.536C0.0770094 114.365 0.0516241 114.184 0.0620232 114.003C0.203794 111.512 0.470786 109.029 0.862011 106.565C0.926098 106.21 1.12661 105.895 1.42051 105.687C1.71442 105.478 2.07829 105.393 2.43409 105.45C2.78989 105.507 3.10926 105.701 3.32368 105.99C3.5381 106.28 3.63048 106.642 3.58101 106.999C3.20509 109.372 2.94879 111.762 2.81303 114.16C2.79121 114.509 2.63752 114.837 2.38313 115.076C2.12874 115.316 1.79267 115.451 1.443 115.452L1.44203 115.457ZM102.697 110.778C102.422 110.778 102.153 110.695 101.926 110.54C99.9757 109.213 97.8989 108.082 95.726 107.164C95.3893 107.022 95.1226 106.753 94.9846 106.415C94.8466 106.077 94.8485 105.698 94.99 105.361C95.1315 105.024 95.401 104.758 95.7391 104.62C96.0772 104.482 96.4563 104.483 96.793 104.625C99.133 105.614 101.369 106.832 103.47 108.261C103.714 108.427 103.898 108.666 103.995 108.944C104.093 109.222 104.099 109.523 104.012 109.805C103.926 110.086 103.751 110.333 103.514 110.508C103.277 110.683 102.991 110.777 102.696 110.777L102.697 110.778ZM67.74 108.049C67.4242 108.049 67.1179 107.94 66.8727 107.741C66.6274 107.542 66.458 107.265 66.393 106.956C66.3279 106.647 66.3711 106.324 66.5153 106.043C66.6595 105.762 66.896 105.539 67.185 105.412C69.4979 104.391 71.8957 103.574 74.351 102.971C74.7059 102.885 75.0805 102.943 75.3925 103.133C75.7044 103.323 75.9282 103.629 76.0145 103.983C76.1008 104.338 76.0427 104.713 75.8528 105.025C75.6629 105.337 75.3569 105.561 75.002 105.647C72.7033 106.212 70.4584 106.977 68.293 107.933C68.1184 108.008 67.9301 108.046 67.74 108.044V108.049ZM89.24 105.176C89.1565 105.176 89.0732 105.168 88.991 105.153C87.0961 104.809 85.174 104.636 83.248 104.636C82.859 104.629 82.403 104.644 81.981 104.66C81.6161 104.674 81.2605 104.543 80.9925 104.294C80.7245 104.046 80.5661 103.702 80.552 103.337C80.538 102.972 80.6694 102.616 80.9176 102.348C81.1657 102.08 81.5101 101.922 81.875 101.908C82.333 101.89 82.822 101.899 83.249 101.882C85.3407 101.882 87.4281 102.07 89.486 102.444C89.8233 102.506 90.1252 102.692 90.3325 102.966C90.5398 103.239 90.6377 103.58 90.6069 103.922C90.5761 104.263 90.4189 104.581 90.1661 104.813C89.9133 105.045 89.5831 105.174 89.24 105.175V105.176ZM3.80601 100.99C3.5933 100.99 3.38348 100.941 3.19297 100.846C3.00247 100.752 2.83648 100.614 2.70802 100.445C2.57956 100.275 2.49211 100.078 2.45256 99.8691C2.413 99.6601 2.4224 99.4448 2.48002 99.24C3.15675 96.8376 3.9619 94.4732 4.89201 92.157C5.03196 91.8236 5.29741 91.5586 5.63105 91.4192C5.9647 91.2799 6.33976 91.2774 6.67524 91.4123C7.01072 91.5471 7.27972 91.8086 7.42411 92.1401C7.56851 92.4715 7.57672 92.8465 7.447 93.184C6.55336 95.4075 5.77992 97.6774 5.13002 99.9839C5.04832 100.272 4.8751 100.525 4.63658 100.706C4.39805 100.886 4.10721 100.984 3.80803 100.985L3.80601 100.99ZM9.262 87.3959C9.02464 87.3956 8.79138 87.3341 8.58485 87.2171C8.37832 87.1001 8.20555 86.9317 8.08329 86.7282C7.96104 86.5247 7.89346 86.2931 7.8871 86.0558C7.88074 85.8185 7.93582 85.5837 8.04701 85.3739C9.21724 83.1699 10.5 81.0274 11.89 78.955C11.9898 78.8026 12.1187 78.6714 12.2695 78.5691C12.4203 78.4669 12.5898 78.3957 12.7683 78.3594C12.9468 78.3232 13.1308 78.3227 13.3095 78.3581C13.4882 78.3934 13.6581 78.4639 13.8093 78.5653C13.9606 78.6668 14.0902 78.7972 14.1907 78.9491C14.2912 79.1011 14.3606 79.2714 14.3948 79.4504C14.429 79.6293 14.4273 79.8132 14.39 79.9915C14.3526 80.1698 14.2802 80.3388 14.177 80.4889C12.8388 82.4822 11.6038 84.543 10.477 86.663C10.3597 86.8828 10.1849 87.0665 9.97123 87.1947C9.7576 87.323 9.51317 87.3908 9.26402 87.3909L9.262 87.3959ZM17.422 75.214C17.1609 75.2137 16.9053 75.1391 16.685 74.9991C16.4646 74.859 16.2886 74.6593 16.1775 74.423C16.0664 74.1868 16.0248 73.9237 16.0574 73.6647C16.0901 73.4057 16.1957 73.1613 16.362 72.96C17.937 71.054 19.631 69.195 21.397 67.436C21.5241 67.3042 21.6762 67.1991 21.8445 67.1269C22.0127 67.0546 22.1936 67.0166 22.3767 67.0151C22.5598 67.0136 22.7414 67.0486 22.9107 67.1181C23.0801 67.1876 23.2339 67.2902 23.3632 67.4198C23.4925 67.5495 23.5946 67.7036 23.6636 67.8732C23.7325 68.0428 23.767 68.2244 23.7649 68.4075C23.7629 68.5906 23.7243 68.7715 23.6515 68.9395C23.5787 69.1075 23.4732 69.2593 23.341 69.386C21.641 71.086 20.004 72.877 18.485 74.715C18.3555 74.8704 18.1932 74.9952 18.0097 75.0806C17.8263 75.166 17.6263 75.2099 17.424 75.209L17.422 75.214ZM27.808 64.8539C27.5244 64.854 27.2477 64.7666 27.0157 64.6036C26.7837 64.4405 26.6077 64.2098 26.5118 63.9429C26.4158 63.6761 26.4046 63.3861 26.4796 63.1126C26.5547 62.8391 26.7123 62.5955 26.931 62.415C28.831 60.843 30.844 59.3319 32.901 57.9269C33.0501 57.8205 33.2189 57.745 33.3976 57.7046C33.5763 57.6643 33.7612 57.66 33.9415 57.6921C34.1219 57.7241 34.294 57.7917 34.4479 57.891C34.6018 57.9904 34.7343 58.1195 34.8376 58.2707C34.941 58.4219 35.0132 58.5922 35.0499 58.7716C35.0866 58.9511 35.0872 59.1361 35.0516 59.3157C35.016 59.4954 34.9449 59.6661 34.8424 59.8179C34.74 59.9698 34.6083 60.0997 34.455 60.2C32.466 61.559 30.524 63.019 28.684 64.538C28.4377 64.7402 28.1286 64.85 27.81 64.8489L27.808 64.8539ZM39.922 56.571C39.6174 56.5711 39.3213 56.4701 39.0802 56.284C38.839 56.0978 38.6665 55.837 38.5894 55.5423C38.5123 55.2476 38.5352 54.9355 38.6544 54.6552C38.7735 54.3748 38.9823 54.142 39.248 53.993C41.402 52.785 43.648 51.6539 45.912 50.6289C46.2433 50.4877 46.6166 50.4818 46.9522 50.6126C47.2877 50.7433 47.5586 51.0004 47.7069 51.3285C47.8552 51.6567 47.8691 52.0298 47.7456 52.3681C47.622 52.7063 47.3709 52.9827 47.046 53.138C44.846 54.131 42.679 55.2259 40.595 56.3949C40.3896 56.5081 40.1586 56.5667 39.924 56.565L39.922 56.571ZM53.296 50.523C52.9713 50.5228 52.6571 50.4079 52.4089 50.1985C52.1607 49.9892 51.9945 49.6989 51.9396 49.3788C51.8846 49.0588 51.9446 48.7296 52.1088 48.4495C52.273 48.1694 52.5309 47.9563 52.837 47.8479C55.165 47.0259 57.563 46.2899 59.964 45.6609C60.3173 45.5681 60.693 45.6195 61.0084 45.8036C61.3238 45.9878 61.5532 46.2897 61.646 46.643C61.7388 46.9963 61.6875 47.3719 61.5034 47.6873C61.3192 48.0027 61.0173 48.2322 60.664 48.325C58.337 48.934 56.013 49.648 53.757 50.445C53.6092 50.4947 53.454 50.5191 53.298 50.517L53.296 50.523Z" fill="white"/>
<path opacity="0.1" d="M149.774 2.76562L15.013 20.7467L47.685 45.5277L48.1971 91.1377L76.351 67.2236L92.1721 79.1527L149.774 2.76562Z" fill="#232323"/>
<path d="M51.1371 88.3727L50.39 21.7488L152.715 -0.000244141L51.1371 88.3727Z" fill="#D7D7D7"/>
<path d="M50.8471 42.9297C51.3651 42.6697 152.715 -0.000244141 152.715 -0.000244141L17.955 17.9807L50.8471 42.9297Z" fill="#DEDEDE"/>
<path d="M62.0171 51.4318L51.1371 88.3707L97.8021 48.7338L62.0171 51.4318Z" fill="#C6C6C6"/>
<path d="M62.0171 51.4337L95.1121 76.3877L152.712 0.000732422L62.0171 51.4337Z" fill="#DEDEDE"/>
</svg>
